<svg width="22" height="22" viewBox="0 0 22 22" fill="none" xmlns="http://www.w3.org/2000/svg">
<path d="M3.00001 6.66082e-06C2.74413 6.66082e-06 2.48798 0.0974753 2.29298 0.292975L0.292975 2.29298C-0.0980247 2.68398 -0.0980247 3.31704 0.292975 3.70704L7.58595 11L0.292975 18.293C-0.0980247 18.684 -0.0980247 19.317 0.292975 19.707L2.29298 21.707C2.68398 22.098 3.31704 22.098 3.70704 21.707L11 14.4141L18.293 21.707C18.683 22.098 19.317 22.098 19.707 21.707L21.707 19.707C22.098 19.316 22.098 18.683 21.707 18.293L14.4141 11L21.707 3.70704C22.098 3.31704 22.098 2.68298 21.707 2.29298L19.707 0.292975C19.316 -0.0980247 18.683 -0.0980247 18.293 0.292975L11 7.58595L3.70704 0.292975C3.51154 0.0974753 3.25588 6.66082e-06 3.00001 6.66082e-06Z" fill="white"/>
</svg>
