<svg width="33" height="33" viewBox="0 0 33 33" fill="none" xmlns="http://www.w3.org/2000/svg">
<path d="M12.8144 1.40001C12.8144 1.93334 10.5955 2.46668 7.96065 2.46668C1.44277 2.46668 0.333344 4.49334 0.333344 17.4C0.333344 32.3333 0.333344 32.3333 16.004 32.3333C24.186 32.3333 29.4558 31.9067 30.5652 31.0533C32.9227 29.24 32.9227 5.56001 30.5652 3.74668C29.5944 3.00001 26.8209 2.46668 24.3247 2.46668C21.8285 2.46668 19.7483 1.93334 19.7483 1.40001C19.7483 0.760009 18.2228 0.333343 16.2813 0.333343C14.3398 0.333343 12.8144 0.760009 12.8144 1.40001ZM18.3615 3.00001C18.3615 3.85334 17.8068 4.60001 17.1134 4.60001C15.3106 4.60001 14.0625 2.89334 15.1719 2.04001C16.6974 0.866676 18.3615 1.40001 18.3615 3.00001ZM12.8144 4.60001C12.8144 6.09334 17.8068 5.98668 20.9964 4.49334C22.3832 3.74668 25.1567 3.53334 27.2369 3.96001L30.9812 4.70668L30.5652 17.72L30.1492 30.7333H16.9747H3.8003L3.38426 18.5733C3.24559 11.8533 3.38426 5.66668 3.66162 4.92001C4.49369 3.32001 12.8144 3.00001 12.8144 4.60001Z" fill="white"/>
<path d="M14.6172 8.54667C12.121 9.29334 12.3984 14.0933 14.8946 14.84C17.3908 15.5867 21.1351 13.56 21.1351 11.4267C21.1351 9.72001 16.9747 7.90667 14.6172 8.54667ZM18.7776 10.68C20.0257 11.64 16.9747 14.3067 15.4493 13.56C13.5078 12.7067 13.9238 9.93334 16.004 9.93334C17.1134 9.93334 18.3615 10.2533 18.7776 10.68Z" fill="white"/>
<path d="M12.2597 18.04C7.96065 21.24 9.48611 22.7333 16.9747 22.7333C24.4634 22.7333 25.0181 22.3067 21.6898 18.68C19.1936 15.9067 15.3106 15.6933 12.2597 18.04ZM19.4709 18.68C22.2445 20.8133 21.4124 21.6667 16.2813 21.6667C11.0116 21.6667 9.90214 20.28 13.9238 18.5733C16.9747 17.1867 17.5294 17.1867 19.4709 18.68Z" fill="white"/>
<path d="M13.9238 25.6133C15.5879 25.8267 18.3615 25.8267 20.1643 25.6133C21.8285 25.4 20.4417 25.1867 16.9747 25.1867C13.5078 25.1867 12.121 25.4 13.9238 25.6133Z" fill="white"/>
<path d="M7.26724 28.0667C7.26724 28.7067 11.4276 29.1333 16.9747 29.1333C22.5218 29.1333 26.6822 28.7067 26.6822 28.0667C26.6822 27.4267 22.5218 27 16.9747 27C11.4276 27 7.26724 27.4267 7.26724 28.0667Z" fill="white"/>
</svg>
