<svg width="32" height="32" viewBox="0 0 32 32" fill="none" xmlns="http://www.w3.org/2000/svg">
<path d="M14.8977 0.0526697C8.55969 0.493187 3.05461 4.76429 0.900176 10.9252C0.568243 11.8573 0.261361 13.1533 0.117315 14.1939C-0.0267315 15.1963 -0.0392573 17.3605 0.0860005 18.3757C0.724815 23.5853 3.68716 28.1181 8.14634 30.7102C9.17345 31.3103 10.7642 31.987 11.1713 31.9998C11.4907 32.0062 11.76 31.8721 11.8978 31.6359C12.0105 31.4443 12.0168 31.3167 11.998 29.9313C11.9918 29.1077 11.9792 28.4246 11.973 28.4246C11.9667 28.4182 11.735 28.4501 11.4594 28.5012C9.81227 28.7757 8.34675 28.399 7.41358 27.4478C7.05033 27.0775 6.9376 26.8987 6.57435 26.1326C5.98564 24.8813 5.64118 24.4024 4.97732 23.9109C4.48881 23.5533 4.22577 23.2852 4.22577 23.1511C4.22577 22.8319 4.98358 22.7234 5.58482 22.9596C6.36768 23.2597 6.8875 23.7193 7.45742 24.6067C8.24654 25.8261 9.23608 26.3688 10.4949 26.2731C10.9772 26.2347 11.9542 25.9602 12.0293 25.8389C12.0481 25.8006 12.1107 25.5963 12.1546 25.3856C12.2736 24.8749 12.5805 24.2301 12.8435 23.93C13.094 23.6427 13.1191 23.6619 12.3049 23.5469C11.6598 23.4576 10.5388 23.1639 10.0002 22.9468C7.73299 22.0339 6.42404 20.3293 5.93554 17.6542C5.77897 16.7987 5.77897 14.6983 5.93554 14.0343C6.161 13.0831 6.58062 12.2148 7.1568 11.4934L7.42611 11.155L7.33216 10.8549C7.00649 9.82706 7.04407 8.49273 7.43237 7.25418C7.55763 6.86473 7.58268 6.82643 7.77057 6.78812C8.44069 6.66044 9.9751 7.22226 11.378 8.10329L11.9918 8.49273L12.5366 8.36505C13.8143 8.06498 14.403 8.00114 16 8.00114C17.6033 8.00114 18.1857 8.06498 19.4634 8.36505L20.0145 8.49273L20.4968 8.18629C21.455 7.57339 22.4007 7.12011 23.0457 6.95411C23.5781 6.82004 24.0415 6.7562 24.242 6.79451C24.4173 6.82643 24.4486 6.87112 24.5676 7.25418C24.9246 8.39059 24.9872 9.83344 24.7117 10.7145L24.5802 11.1295L24.7054 11.2891C25.3192 12.0616 25.8014 13.0064 26.0331 13.9002C26.196 14.5259 26.2586 16.122 26.1521 17.0158C25.6887 20.8975 23.6031 22.9851 19.6325 23.5469C18.8809 23.6491 18.8935 23.6427 19.1127 23.8853C19.4007 24.1918 19.6763 24.7408 19.8329 25.309C19.9581 25.7815 19.9707 25.9858 20.002 28.6863C20.0458 31.8274 20.0333 31.7636 20.4153 31.9232C20.7097 32.0509 21.0542 32.0062 21.6679 31.7572C23.8474 30.8953 25.5634 29.7717 27.2043 28.1245C29.8159 25.5069 31.4568 22.1105 31.914 18.3757C32.0393 17.3605 32.0267 15.1963 31.8827 14.1939C30.7992 6.41145 24.6741 0.588952 17.0209 0.0526697C16.0125 -0.0175578 15.9248 -0.0175578 14.8977 0.0526697Z" fill="black"/>
</svg>
