<svg width="32" height="32" viewBox="0 0 32 32" fill="none" xmlns="http://www.w3.org/2000/svg">
<path d="M6.09764 0.205115C3.75433 0.758507 1.73858 2.44384 0.655118 4.70771L0 6.09119V16.0271V25.963L0.655118 27.3465C1.48661 29.1073 2.89764 30.5159 4.66142 31.346L6.04724 32H16H25.9528L27.3386 31.346C29.1024 30.5159 30.5134 29.1073 31.3449 27.3465L32 25.963V16.1529C32 7.07221 31.9748 6.24212 31.5213 5.08503C30.8661 3.45 28.926 1.38736 27.263 0.657891C25.978 0.0541904 25.8268 0.0541904 16.5039 0.00388199C11.3134 -0.0212722 6.62677 0.0793445 6.09764 0.205115ZM9.42362 6.34274C10.7339 6.99674 10.9606 8.95877 9.85197 9.93978C9.09606 10.6441 8.21417 10.7699 7.28189 10.3423C5.5685 9.53732 5.51811 7.24829 7.2063 6.31758C7.9874 5.88996 8.56693 5.88996 9.42362 6.34274ZM10.6583 19.3474L10.5827 25.963H8.31496H6.04724L5.97165 19.3474L5.92126 12.7571H8.31496H10.7087L10.6583 19.3474ZM17.0079 13.6626V14.5933L17.5874 13.9645C18.4189 13.0841 19.8047 12.6816 21.6945 12.8074C23.3827 12.908 24.2394 13.3356 25.1465 14.5682C25.7764 15.4234 26.1039 18.5174 26.0283 22.7181L25.9528 25.963H24.063H22.1732L22.0472 21.6113L21.9213 17.2345L21.2157 16.6308C20.4598 15.9768 19.326 15.851 18.4693 16.3038C17.5118 16.8069 17.2598 18.0143 17.2598 22.1899V26.0888H15.3701H13.4803V19.4229V12.7571H15.2441H17.0079V13.6626Z" fill="white"/>
</svg>
