<svg width="32" height="32" viewBox="0 0 32 32" fill="none" xmlns="http://www.w3.org/2000/svg">
<g clip-path="url(#clip0_9_13)">
<path d="M6.425 0.391333C4.1 0.941333 2.1 2.61633 1.025 4.86633L0.375 6.24133V16.1163V25.9913L1.025 27.3663C1.85 29.1163 3.25 30.5163 5 31.3413L6.375 31.9913H16.25H26.125L27.5 31.3413C29.25 30.5163 30.65 29.1163 31.475 27.3663L32.125 25.9913V16.2413C32.125 7.21633 32.1 6.39133 31.65 5.24133C31 3.61633 29.075 1.56633 27.425 0.841333C26.15 0.241333 26 0.241333 16.75 0.191333C11.6 0.166333 6.95 0.266333 6.425 0.391333ZM9.725 6.49133C11.025 7.14133 11.25 9.09133 10.15 10.0663C9.4 10.7663 8.525 10.8913 7.6 10.4663C5.9 9.66633 5.85 7.39133 7.525 6.46633C8.3 6.04133 8.875 6.04133 9.725 6.49133ZM10.95 19.4163L10.875 25.9913H8.625H6.375L6.3 19.4163L6.25 12.8663H8.625H11L10.95 19.4163ZM17.25 13.7663V14.6913L17.825 14.0663C18.65 13.1913 20.025 12.7913 21.9 12.9163C23.575 13.0163 24.425 13.4413 25.325 14.6663C25.95 15.5163 26.275 18.5913 26.2 22.7663L26.125 25.9913H24.25H22.375L22.25 21.6663L22.125 17.3163L21.425 16.7163C20.675 16.0663 19.55 15.9413 18.7 16.3913C17.75 16.8913 17.5 18.0913 17.5 22.2413V26.1163H15.625H13.75V19.4913V12.8663H15.5H17.25V13.7663Z" fill="black"/>
</g>
<defs>
<clipPath id="clip0_9_13">
<rect width="32" height="32" fill="white"/>
</clipPath>
</defs>
</svg>
