<svg width="45" height="45" viewBox="0 0 45 45" fill="none" xmlns="http://www.w3.org/2000/svg">
<g filter="url(#filter0_d_8_33)">
<circle cx="22.2" cy="18.3333" r="17" stroke="white" stroke-width="2" shape-rendering="crispEdges"/>
</g>
<path d="M10.4667 11.915C10.3321 11.9134 10.1984 11.9349 10.0735 11.9782C9.94856 12.0216 9.83486 12.086 9.73899 12.1677C9.64313 12.2493 9.567 12.3467 9.51504 12.454C9.46308 12.5613 9.43633 12.6764 9.43633 12.7927C9.43633 12.9091 9.46308 13.0242 9.51504 13.1315C9.567 13.2388 9.64313 13.3362 9.73899 13.4178C9.83486 13.4995 9.94856 13.5639 10.0735 13.6072C10.1984 13.6506 10.3321 13.6721 10.4667 13.6705H34.8476C34.9822 13.6721 35.1159 13.6506 35.2408 13.6072C35.3657 13.5639 35.4794 13.4995 35.5753 13.4178C35.6712 13.3362 35.7473 13.2388 35.7992 13.1315C35.8512 13.0242 35.878 12.9091 35.878 12.7927C35.878 12.6764 35.8512 12.5613 35.7992 12.454C35.7473 12.3467 35.6712 12.2493 35.5753 12.1677C35.4794 12.086 35.3657 12.0216 35.2408 11.9782C35.1159 11.9349 34.9822 11.9134 34.8476 11.915H10.4667ZM10.4667 18.059C10.3321 18.0574 10.1984 18.0789 10.0735 18.1222C9.94856 18.1656 9.83486 18.23 9.73899 18.3117C9.64313 18.3933 9.567 18.4907 9.51504 18.598C9.46308 18.7053 9.43633 18.8204 9.43633 18.9367C9.43633 19.0531 9.46308 19.1682 9.51504 19.2755C9.567 19.3828 9.64313 19.4802 9.73899 19.5618C9.83486 19.6435 9.94856 19.7079 10.0735 19.7512C10.1984 19.7946 10.3321 19.8161 10.4667 19.8145H34.8476C34.9822 19.8161 35.1159 19.7946 35.2408 19.7512C35.3657 19.7079 35.4794 19.6435 35.5753 19.5618C35.6712 19.4802 35.7473 19.3828 35.7992 19.2755C35.8512 19.1682 35.878 19.0531 35.878 18.9367C35.878 18.8204 35.8512 18.7053 35.7992 18.598C35.7473 18.4907 35.6712 18.3933 35.5753 18.3117C35.4794 18.23 35.3657 18.1656 35.2408 18.1222C35.1159 18.0789 34.9822 18.0574 34.8476 18.059H10.4667ZM10.4667 24.203C10.3321 24.2014 10.1984 24.2229 10.0735 24.2662C9.94856 24.3096 9.83486 24.374 9.73899 24.4557C9.64313 24.5373 9.567 24.6346 9.51504 24.742C9.46308 24.8493 9.43633 24.9644 9.43633 25.0807C9.43633 25.1971 9.46308 25.3122 9.51504 25.4195C9.567 25.5268 9.64313 25.6241 9.73899 25.7058C9.83486 25.7875 9.94856 25.8519 10.0735 25.8952C10.1984 25.9386 10.3321 25.9601 10.4667 25.9585H34.8476C34.9822 25.9601 35.1159 25.9386 35.2408 25.8952C35.3657 25.8519 35.4794 25.7875 35.5753 25.7058C35.6712 25.6241 35.7473 25.5268 35.7992 25.4195C35.8512 25.3122 35.878 25.1971 35.878 25.0807C35.878 24.9644 35.8512 24.8493 35.7992 24.742C35.7473 24.6346 35.6712 24.5373 35.5753 24.4557C35.4794 24.374 35.3657 24.3096 35.2408 24.2662C35.1159 24.2229 34.9822 24.2014 34.8476 24.203H10.4667Z" fill="white"/>
<defs>
<filter id="filter0_d_8_33" x="0.199997" y="0.333328" width="44" height="44" filterUnits="userSpaceOnUse" color-interpolation-filters="sRGB">
<feFlood flood-opacity="0" result="BackgroundImageFix"/>
<feColorMatrix in="SourceAlpha" type="matrix" values="0 0 0 0 0 0 0 0 0 0 0 0 0 0 0 0 0 0 127 0" result="hardAlpha"/>
<feOffset dy="4"/>
<feGaussianBlur stdDeviation="2"/>
<feComposite in2="hardAlpha" operator="out"/>
<feColorMatrix type="matrix" values="0 0 0 0 0 0 0 0 0 0 0 0 0 0 0 0 0 0 0.25 0"/>
<feBlend mode="normal" in2="BackgroundImageFix" result="effect1_dropShadow_8_33"/>
<feBlend mode="normal" in="SourceGraphic" in2="effect1_dropShadow_8_33" result="shape"/>
</filter>
</defs>
</svg>
