<svg width="33" height="33" viewBox="0 0 33 33" fill="none" xmlns="http://www.w3.org/2000/svg">
<g clip-path="url(#clip0_9_23)">
<path d="M18.1407 4.02211C16.8665 5.87509 15.9108 8.09867 15.9108 8.9634C15.9108 11.187 10.177 9.08693 5.71728 5.1339C1.78852 1.55147 1.78852 1.55146 1.78852 10.3223C1.8947 15.0165 4.86782 23.0461 7.31002 25.1461C9.11513 26.6285 8.90276 26.752 1.57616 28.358C-0.122768 28.7286 0.195781 29.2227 3.38126 30.8286C14.9552 36.8817 27.9095 28.358 30.3517 13.04C30.7764 10.6929 31.8382 7.85161 32.6877 6.61629C33.6433 5.38096 33.8557 4.51624 33.1124 4.51624C32.4753 4.51624 32.1568 3.65151 32.5815 2.53972C33.1124 0.81027 32.9 0.686738 30.7764 2.04559C29.0775 3.15738 28.1218 3.15738 27.2724 2.16913C25.1487 -0.301519 20.4767 0.686738 18.1407 4.02211Z" fill="black"/>
</g>
<defs>
<clipPath id="clip0_9_23">
<rect width="33" height="33" fill="white"/>
</clipPath>
</defs>
</svg>
