<svg width="32" height="33" viewBox="0 0 32 33" fill="none" xmlns="http://www.w3.org/2000/svg">
<path d="M17.0485 3.77101C15.8129 5.62399 14.8863 7.84757 14.8863 8.7123C14.8863 10.9359 9.32614 8.83583 5.00161 4.8828C1.1919 1.30036 1.1919 1.30036 1.1919 10.0712C1.29487 14.7654 4.17789 22.795 6.54608 24.895C8.29649 26.3774 8.09056 26.5009 0.985972 28.1069C-0.661469 28.4775 -0.352573 28.9716 2.73638 30.5775C13.9596 36.6306 26.5213 28.1069 28.8895 12.7889C29.3014 10.4418 30.331 7.60051 31.1547 6.36519C32.0814 5.12986 32.2873 4.26514 31.5666 4.26514C30.9488 4.26514 30.6399 3.40041 31.0518 2.28862C31.5666 0.559168 31.3607 0.435636 29.3014 1.79449C27.6539 2.90628 26.7272 2.90628 25.9035 1.91802C23.8442 -0.552622 19.3137 0.435636 17.0485 3.77101Z" fill="white"/>
</svg>
